<?xml version="1.0" encoding="UTF-8" standalone="no"?>
<!-- Created with Inkscape (http://www.inkscape.org/) -->

<svg
   version="1.1"
   id="svg182"
   width="20"
   height="20"
   viewBox="0 0 20 20"
   sodipodi:docname="left1.svg"
   inkscape:version="1.2.2 (732a01da63, 2022-12-09)"
   xmlns:inkscape="http://www.inkscape.org/namespaces/inkscape"
   xmlns:sodipodi="http://sodipodi.sourceforge.net/DTD/sodipodi-0.dtd"
   xmlns:xlink="http://www.w3.org/1999/xlink"
   xmlns="http://www.w3.org/2000/svg"
   xmlns:svg="http://www.w3.org/2000/svg">
  <defs
     id="defs186">
    <color-profile
       name="Adobe-RGB--1998-"
       xlink:href="../../../../../../Windows/system32/spool/drivers/color/AdobeRGB1998.icc"
       id="color-profile1866" />
    <clipPath
       clipPathUnits="userSpaceOnUse"
       id="clipPath194">
      <path
         id="path196"
         style="fill:#ff0000;fill-opacity:1;fill-rule:nonzero;stroke:none"
         d="M 4.1894531,8.3574219 V 9.1503906 H 4.9824219 V 8.3886719 c -0.014944,-0.010364 -0.02997,-0.0209 -0.044922,-0.03125 z" />
    </clipPath>
    <clipPath
       clipPathUnits="userSpaceOnUse"
       id="clipPath521">
      <path
         id="path523"
         style="fill:#ff0000;fill-opacity:1;fill-rule:nonzero;stroke:none"
         d="M 6.6972656,9.1933594 V 9.9863281 H 7.4824219 V 9.1933594 H 7.0976562 c -0.062627,0.078309 -0.1999666,0.1050689 -0.3691406,0.00391 -0.002,-0.0012 -0.00386,-0.00271 -0.00586,-0.00391 z" />
    </clipPath>
    <clipPath
       clipPathUnits="userSpaceOnUse"
       id="clipPath531">
      <path
         id="path533"
         style="fill:#ff0000;fill-opacity:1;fill-rule:nonzero;stroke:none"
         d="M 5.0253906,9.1933594 V 9.9863281 H 5.8183594 V 9.1933594 Z" />
    </clipPath>
    <clipPath
       clipPathUnits="userSpaceOnUse"
       id="clipPath558">
      <path
         id="path560"
         style="fill:#ff0000;fill-opacity:1;fill-rule:nonzero;stroke:none"
         d="M 5.8613281,8.6074219 V 9.1503906 H 6.6523438 C 6.5124325,9.0643508 6.376122,8.9745582 6.2421875,8.8789062 6.1146634,8.7894804 5.9878209,8.6985528 5.8613281,8.6074219 Z" />
    </clipPath>
    <clipPath
       clipPathUnits="userSpaceOnUse"
       id="clipPath636">
      <path
         id="path638"
         style="fill:#ff0000;fill-opacity:1;fill-rule:nonzero;stroke:none"
         d="m 170.68571,170.68571 v 20 h 20 v -20 z m 5.19141,6.64648 c 0.1068,0 0.21227,0.10626 0.20898,0.31836 -9.9e-4,0.0641 -0.003,0.1276 -0.002,0.19141 l 0.002,0.002 c 0.0107,-0.15379 0.0976,-0.23729 0.18945,-0.24218 0.004,-1.9e-4 0.006,-5e-5 0.01,0 0.10068,0.001 0.2064,0.0956 0.23047,0.29296 0.0105,0.0866 0.0295,0.1714 0.0508,0.25586 0.0866,-0.0591 0.14669,-0.1627 0.16797,-0.16796 0.013,-0.003 0.0121,0.0321 -0.006,0.13671 -0.0187,0.11399 -0.0613,0.2209 -0.10742,0.32618 -0.002,0.0283 -0.008,0.055 -0.0156,0.0781 0.006,-10e-4 0.0118,-0.003 0.0176,-0.004 0.15534,-0.0164 0.23404,0.13628 0.14844,0.30665 v 0.002 c 2.4e-4,0.0214 -0.003,0.0418 -0.008,0.0605 0.0118,-0.002 0.0245,-0.003 0.0371,-0.004 0.0366,-0.002 0.0729,-0.007 0.10938,-0.01 0.005,-0.10291 0.0786,-0.1739 0.17773,-0.17382 0.0763,1e-5 0.16686,0.0426 0.25391,0.14257 l 0.002,0.002 c 0.21744,0.0239 0.30021,0.18638 0.18164,0.30664 0.008,0.10491 -0.0538,0.18264 -0.14453,0.19726 0.0831,0.0558 0.16541,0.11268 0.25196,0.16407 0.3648,0.21655 0.14537,0.58688 -0.21875,0.36914 -0.16664,-0.0996 -0.32825,-0.20547 -0.48633,-0.31836 -0.18517,-0.12986 -0.3693,-0.2619 -0.55274,-0.39453 -0.0105,0.006 -0.0207,0.0132 -0.0312,0.0195 -0.005,0.003 -0.009,0.005 -0.0137,0.008 -0.0294,0.13005 -0.19774,0.20008 -0.40625,0.0547 -0.3157,-0.22023 -0.63105,-0.43953 -0.95312,-0.65039 -0.26622,-0.1743 -0.19653,-0.41612 0.008,-0.42774 0.0674,-0.004 0.14952,0.0181 0.23828,0.0762 0.11488,0.0752 0.22702,0.15429 0.33984,0.23243 0.0187,-0.0748 0.0736,-0.12467 0.14258,-0.13477 v -0.0117 c -0.008,-0.038 -0.0156,-0.0766 -0.0215,-0.11523 -0.0203,-0.19009 -0.0257,-0.3792 -0.0215,-0.57032 0.005,-0.21208 0.11391,-0.31835 0.22071,-0.31836 z" />
    </clipPath>
    <clipPath
       clipPathUnits="userSpaceOnUse"
       id="clipPath646">
      <path
         id="path648"
         style="fill:#ff0000;fill-opacity:1;fill-rule:nonzero;stroke:none"
         d="m 5.8183594,7.9707031 c -0.1201283,0.017044 -0.066512,0.1418071 0,0.2578125 z M 5.0253906,8.1875 V 8.3144531 H 5.1425781 C 5.1021661,8.2729616 5.0626207,8.2317825 5.0253906,8.1875 Z m 0.6132813,0.097656 c 0.00208,0.010004 0.00112,0.01969 0.00195,0.029297 h 0.035156 c -0.00532,-0.00372 -0.010523,-0.00769 -0.015625,-0.011719 -0.00733,-0.00579 -0.01454,-0.011296 -0.021484,-0.017578 z" />
    </clipPath>
  </defs>
  <sodipodi:namedview
     id="namedview184"
     pagecolor="#ffffff"
     bordercolor="#000000"
     borderopacity="0.67843137"
     inkscape:showpageshadow="2"
     inkscape:pageopacity="0"
     inkscape:pagecheckerboard="true"
     inkscape:deskcolor="#d1d1d1"
     showgrid="false"
     inkscape:zoom="23.333333"
     inkscape:cx="7.3285715"
     inkscape:cy="10.2"
     inkscape:window-width="1366"
     inkscape:window-height="705"
     inkscape:window-x="-8"
     inkscape:window-y="-8"
     inkscape:window-maximized="1"
     inkscape:current-layer="g188" />
  <g
     inkscape:groupmode="layer"
     inkscape:label="Image"
     id="g188"
     transform="translate(-170.68571,-170.68571)"
     style="display:inline">
    <path
       style="display:inline;fill:#ffffff;stroke-width:0.0428571"
       d="m 185.08965,187.84058 c 0.47336,-0.46857 0.48547,-0.48515 0.38693,-0.53005 -0.0637,-0.0291 -0.0927,-0.07 -0.0774,-0.10964 0.0146,-0.0381 -7.6e-4,-0.0633 -0.0387,-0.0633 -0.0346,0 -0.0629,-0.0193 -0.0629,-0.0429 0,-0.0236 -0.0289,-0.0429 -0.0643,-0.0429 -0.0354,0 -0.0643,-0.0289 -0.0643,-0.0643 0,-0.0354 -0.0265,-0.0643 -0.0589,-0.0643 -0.0324,0 -0.0855,-0.053 -0.11786,-0.11786 -0.0324,-0.0648 -0.0923,-0.11785 -0.13311,-0.11785 -0.0708,0 -3.11867,-3.00382 -3.11867,-3.07359 0,-0.0185 -0.0205,-0.0336 -0.0456,-0.0336 -0.0595,0 -0.51149,-0.45199 -0.51149,-0.51149 0,-0.0251 -0.022,-0.0456 -0.049,-0.0456 -0.0663,0 -2.56532,-2.48992 -2.56532,-2.55596 0,-0.0507 2.33754,-2.41547 2.38768,-2.41547 0.0266,0 4.52506,-4.45719 4.54637,-4.50472 0.007,-0.0155 -0.10395,-0.14291 -0.24643,-0.2832 -0.14247,-0.14028 -0.25905,-0.27753 -0.25905,-0.305 0,-0.0275 -0.0207,-0.0499 -0.0459,-0.0499 -0.057,0 -0.16837,-0.1081 -0.16837,-0.16337 0,-0.0225 -0.0415,-0.0518 -0.0921,-0.065 -0.066,-0.0173 -0.12551,0.0116 -0.21005,0.10215 -0.0649,0.0694 -0.1584,0.12623 -0.20787,0.12623 -0.0522,0 -0.09,0.0275 -0.09,0.0656 0,0.0361 -0.0337,0.0776 -0.075,0.0922 -0.11207,0.0397 -0.22613,0.1485 -0.20003,0.19073 0.0126,0.0204 -0.007,0.0371 -0.0439,0.0371 -0.0368,0 -0.0668,0.0289 -0.0668,0.0643 0,0.0354 -0.0289,0.0643 -0.0643,0.0643 -0.0354,0 -0.0595,0.0241 -0.0536,0.0536 0.006,0.0295 -0.0134,0.0488 -0.0429,0.0429 -0.0295,-0.006 -0.0536,0.0182 -0.0536,0.0536 0,0.0354 -0.0289,0.0643 -0.0643,0.0643 -0.0353,0 -0.0595,0.0232 -0.0536,0.0516 0.006,0.0284 -0.0182,0.0534 -0.0536,0.0555 -0.0354,0.002 -0.0595,0.0271 -0.0536,0.0555 0.006,0.0284 -0.0152,0.0516 -0.0469,0.0516 -0.0317,0 -0.0926,0.0386 -0.13521,0.0857 -0.0427,0.0471 -0.0619,0.0857 -0.0429,0.0857 0.0191,0 -8.1e-4,0.0392 -0.0442,0.0872 -0.0434,0.048 -0.10352,0.0778 -0.13356,0.0663 -0.0617,-0.0237 -1.21506,1.12121 -1.21506,1.20613 0,0.03 -0.25554,0.30552 -0.56786,0.61231 -0.31232,0.30679 -0.58074,0.572 -0.59648,0.58937 -0.30774,0.33944 -1.42586,1.44298 -1.45412,1.43515 -0.0213,-0.006 -0.0387,0.0152 -0.0387,0.0469 0,0.0732 -0.14751,0.20914 -0.18563,0.17102 -0.0158,-0.0158 -0.0287,-0.006 -0.0287,0.0213 0,0.0275 -0.0289,0.05 -0.0643,0.05 -0.0354,0 -0.0643,0.0207 -0.0643,0.0459 0,0.0593 -0.10903,0.16836 -0.16836,0.16836 -0.0253,0 -0.0459,0.0219 -0.0459,0.0487 0,0.0268 -0.0474,0.0926 -0.10541,0.14635 -0.058,0.0537 -0.11795,0.14766 -0.13328,0.20873 -0.0223,0.0888 -0.0614,0.1164 -0.19508,0.13778 -0.13061,0.0209 -0.23042,0.0887 -0.45588,0.30977 -0.15876,0.15567 -0.28305,0.30746 -0.2762,0.3373 0.007,0.0299 -0.0203,0.0543 -0.0603,0.0543 -0.0881,0 -0.41026,0.33839 -0.37558,0.39449 0.0135,0.0219 -0.0106,0.0337 -0.0537,0.0262 -0.0502,-0.009 -0.0787,0.0126 -0.0793,0.0594 -5.6e-4,0.0402 -0.0396,0.10188 -0.0867,0.13716 -0.082,0.0614 -0.0493,0.10069 0.76071,0.9131 0.46554,0.46692 0.84643,0.87402 0.84643,0.90466 0,0.0306 0.0213,0.0425 0.0474,0.0265 0.0724,-0.0447 0.77202,0.66923 0.74359,0.75883 -0.017,0.0535 -0.003,0.0675 0.0537,0.0532 0.0558,-0.0141 0.44565,0.34998 1.4265,1.33212 0.74236,0.74334 1.37397,1.35152 1.40357,1.35152 0.0296,0 0.0538,0.0245 0.0538,0.0543 0,0.0571 0.85649,0.93138 0.91243,0.93138 0.0178,0 0.39595,0.36343 0.84028,0.80762 l 0.80788,0.80763 z"
       id="path1780" />
  </g>
</svg>
